<?xml version="1.0" encoding="utf-8"?>
<!-- Generator: Adobe Illustrator 16.0.0, SVG Export Plug-In . SVG Version: 6.00 Build 0)  -->
<!DOCTYPE svg PUBLIC "-//W3C//DTD SVG 1.1//EN" "http://www.w3.org/Graphics/SVG/1.1/DTD/svg11.dtd">
<svg version="1.1" id="Capa_1" xmlns="http://www.w3.org/2000/svg" xmlns:xlink="http://www.w3.org/1999/xlink" x="0px" y="0px"
	 width="283.46px" height="85.039px" viewBox="0 0 283.46 85.039" enable-background="new 0 0 283.46 85.039" xml:space="preserve">
<g>
	<g>
		<path fill="#FFFFFF" d="M89.795,64.953h-1.377v5.358h-1.003v-12.11h2.381c1.446,0,2.62,0.526,2.62,3.367
			C92.415,64.119,91.513,64.953,89.795,64.953z M89.829,59.103h-1.412v4.949h1.412c1.208,0,1.582-0.885,1.582-2.466
			C91.411,60.004,91.037,59.103,89.829,59.103z"/>
		<path fill="#FFFFFF" d="M99.39,69.784c-0.425,0.425-0.986,0.663-1.65,0.663s-1.19-0.221-1.582-0.612
			c-0.494-0.51-0.68-1.14-0.68-1.871h0.952c0,0.545,0.119,0.952,0.442,1.275c0.238,0.238,0.544,0.357,0.867,0.357
			c0.408,0,0.731-0.136,0.987-0.391c0.255-0.255,0.391-0.63,0.391-1.072c0-0.357-0.068-0.663-0.238-0.936
			c-0.187-0.289-0.459-0.527-0.867-0.748l-1.088-0.596c-0.544-0.306-0.936-0.696-1.123-1.021c-0.171-0.323-0.239-0.663-0.239-1.089
			c0-0.663,0.272-1.225,0.68-1.632c0.392-0.392,0.936-0.596,1.548-0.596c0.646,0,1.157,0.188,1.548,0.578
			c0.425,0.425,0.629,1.038,0.629,1.871h-0.953c0-0.646-0.102-0.97-0.375-1.259c-0.238-0.255-0.544-0.34-0.85-0.34
			c-0.375,0-0.68,0.103-0.901,0.323c-0.272,0.255-0.375,0.663-0.375,1.021c0,0.288,0.051,0.544,0.17,0.749
			c0.119,0.22,0.409,0.424,0.8,0.646l1.072,0.612c0.561,0.323,0.935,0.629,1.173,1.021c0.238,0.391,0.34,0.868,0.34,1.36
			C100.071,68.78,99.798,69.375,99.39,69.784z"/>
		<path fill="#FFFFFF" d="M103.253,59.664v-1.225h1.225v1.225H103.253z M103.389,70.312v-8.658h0.953v8.658H103.389z"/>
		<path fill="#FFFFFF" d="M111.316,73.764v-4.099c-0.102,0.188-0.289,0.408-0.459,0.51c-0.289,0.188-0.596,0.272-0.987,0.272
			c-0.595,0-1.021-0.238-1.344-0.612c-0.527-0.612-0.646-1.685-0.646-3.844c0-2.16,0.119-3.249,0.646-3.861
			c0.357-0.408,0.817-0.612,1.344-0.612c0.391,0,0.698,0.102,0.987,0.306c0.136,0.103,0.391,0.341,0.476,0.528v-0.698h0.936v12.11
			H111.316z M111.316,63.882c0-0.562-0.136-0.936-0.391-1.19c-0.221-0.204-0.51-0.323-0.833-0.323c-0.34,0-0.646,0.17-0.833,0.391
			c-0.391,0.477-0.425,1.379-0.425,3.232s0.034,2.738,0.425,3.215c0.188,0.221,0.493,0.391,0.833,0.391
			c0.323,0,0.612-0.103,0.833-0.306c0.255-0.256,0.391-0.646,0.391-1.208V63.882z"/>
		<path fill="#FFFFFF" d="M119.381,70.312v-0.698c-0.102,0.188-0.34,0.426-0.493,0.527c-0.272,0.188-0.596,0.307-0.987,0.307
			c-0.578,0-1.004-0.204-1.361-0.578c-0.34-0.356-0.527-0.851-0.527-1.719v-6.497h0.953v6.516c0,0.951,0.527,1.411,1.19,1.411
			c0.663,0,1.207-0.46,1.207-1.411v-6.516h0.953v8.658H119.381z"/>
		<path fill="#FFFFFF" d="M123.992,59.664v-1.225h1.225v1.225H123.992z M124.128,70.312v-8.658h0.953v8.658H124.128z"/>
		<path fill="#FFFFFF" d="M131.936,70.312v-0.782c-0.119,0.237-0.323,0.459-0.476,0.578c-0.272,0.204-0.562,0.34-1.038,0.34
			c-0.544,0-1.003-0.188-1.377-0.578c-0.323-0.34-0.561-1.021-0.561-1.956c0-0.816,0.238-1.514,0.731-1.956
			c0.426-0.392,0.918-0.578,1.701-0.578h0.986v-1.548c0-0.953-0.391-1.479-1.19-1.479c-0.34,0-0.595,0.136-0.782,0.323
			c-0.272,0.288-0.391,0.629-0.391,1.207h-0.953c0-0.646,0.136-1.293,0.629-1.786c0.357-0.357,0.868-0.578,1.497-0.578
			c0.68,0,1.208,0.188,1.548,0.544c0.391,0.409,0.595,0.953,0.595,1.803v6.447H131.936z M131.902,66.127h-0.952
			c-0.442,0-0.766,0.102-1.055,0.375c-0.289,0.288-0.459,0.815-0.459,1.394c0,1.037,0.375,1.701,1.208,1.701
			c0.766,0,1.259-0.664,1.259-1.565V66.127z"/>
		<path fill="#FFFFFF" d="M137.517,69.767c-0.426-0.392-0.647-0.97-0.647-1.769v-5.527h-1.054v-0.749h1.054v-2.603h0.953v2.603h1.48
			v0.749h-1.48v5.527c0,1.037,0.544,1.463,1.548,1.463v0.851C138.674,70.312,138.027,70.243,137.517,69.767z"/>
		<path fill="#FFFFFF" d="M145.104,62.419c-1.021,0-1.684,0.646-1.684,1.684v6.209h-0.953v-8.658h0.936v0.919
			c0.085-0.188,0.289-0.425,0.425-0.544c0.392-0.357,0.902-0.511,1.48-0.511v0.901H145.104z"/>
		<path fill="#FFFFFF" d="M149.188,60.344h-0.833l1.122-2.211h0.987L149.188,60.344z M148.354,70.312v-8.658h0.953v8.658H148.354z"
			/>
		<path fill="#FFFFFF" d="M156.146,70.312v-0.782c-0.119,0.237-0.322,0.459-0.477,0.578c-0.271,0.204-0.561,0.34-1.037,0.34
			c-0.544,0-1.004-0.188-1.377-0.578c-0.323-0.34-0.562-1.021-0.562-1.956c0-0.816,0.238-1.514,0.73-1.956
			c0.426-0.392,0.919-0.578,1.701-0.578h0.986v-1.548c0-0.953-0.391-1.479-1.189-1.479c-0.341,0-0.597,0.136-0.783,0.323
			c-0.272,0.288-0.392,0.629-0.392,1.207h-0.952c0-0.646,0.137-1.293,0.629-1.786c0.357-0.357,0.868-0.578,1.498-0.578
			c0.68,0,1.206,0.188,1.547,0.544c0.392,0.409,0.596,0.953,0.596,1.803v6.447H156.146z M156.111,66.127h-0.952
			c-0.442,0-0.766,0.102-1.055,0.375c-0.289,0.288-0.459,0.815-0.459,1.394c0,1.037,0.375,1.701,1.208,1.701
			c0.766,0,1.258-0.664,1.258-1.565V66.127z"/>
		<path fill="#FFFFFF" d="M171.848,70.312l-0.936-1.429c-0.749,0.935-1.479,1.564-2.823,1.564c-1.496,0-2.688-1.072-2.688-2.926
			c0-1.479,0.663-2.482,2.109-3.81c-1.157-1.634-1.531-2.212-1.531-3.182c0-1.292,0.766-2.432,2.262-2.432
			c1.498,0,2.28,0.952,2.28,2.279c0,1.429-0.544,2.211-1.854,3.453l2.245,3.385c0.426-0.697,0.732-1.889,0.8-2.857h0.918
			c-0.103,1.378-0.526,2.738-1.173,3.708l1.479,2.245H171.848z M168.004,64.461c-1.123,1.104-1.65,1.955-1.65,2.976
			c0,1.14,0.663,2.126,1.838,2.126c0.884,0,1.548-0.611,2.21-1.463L168.004,64.461z M168.259,58.967
			c-0.952,0-1.344,0.816-1.344,1.53c0,0.68,0.256,1.174,1.259,2.585c0.885-0.866,1.429-1.496,1.429-2.671
			C169.603,59.562,169.041,58.967,168.259,58.967z"/>
		<path fill="#FFFFFF" d="M180.899,70.312v-12.11h4.219v0.901h-3.215v4.694h2.772v0.901h-2.772v4.712h3.215v0.901H180.899z"/>
		<path fill="#FFFFFF" d="M192.094,69.784c-0.426,0.425-0.987,0.663-1.65,0.663s-1.19-0.221-1.582-0.612
			c-0.492-0.51-0.68-1.14-0.68-1.871h0.952c0,0.545,0.119,0.952,0.442,1.275c0.237,0.238,0.544,0.357,0.867,0.357
			c0.408,0,0.732-0.136,0.987-0.391c0.254-0.255,0.391-0.63,0.391-1.072c0-0.357-0.067-0.663-0.238-0.936
			c-0.187-0.289-0.459-0.527-0.868-0.748l-1.088-0.596c-0.544-0.306-0.936-0.696-1.122-1.021c-0.171-0.323-0.238-0.663-0.238-1.089
			c0-0.663,0.271-1.225,0.681-1.632c0.391-0.392,0.935-0.596,1.548-0.596c0.646,0,1.156,0.188,1.547,0.578
			c0.426,0.425,0.63,1.038,0.63,1.871h-0.953c0-0.646-0.102-0.97-0.374-1.259c-0.238-0.255-0.544-0.34-0.85-0.34
			c-0.375,0-0.682,0.103-0.901,0.323c-0.272,0.255-0.375,0.663-0.375,1.021c0,0.288,0.052,0.544,0.171,0.749
			c0.118,0.22,0.407,0.424,0.799,0.646l1.071,0.612c0.562,0.323,0.936,0.629,1.174,1.021c0.238,0.391,0.34,0.868,0.34,1.36
			C192.773,68.78,192.501,69.375,192.094,69.784z"/>
		<path fill="#FFFFFF" d="M197.012,69.767c-0.426-0.392-0.646-0.97-0.646-1.769v-5.527h-1.056v-0.749h1.056v-2.603h0.952v2.603h1.48
			v0.749h-1.48v5.527c0,1.037,0.544,1.463,1.548,1.463v0.851C198.168,70.312,197.521,70.243,197.012,69.767z"/>
		<path fill="#FFFFFF" d="M201.825,59.664v-1.225h1.225v1.225H201.825z M201.962,70.312v-8.658h0.952v8.658H201.962z"/>
		<path fill="#FFFFFF" d="M207.304,69.767c-0.407-0.374-0.646-0.901-0.646-1.769v-9.797h0.952v9.797
			c0,0.935,0.459,1.463,1.412,1.463v0.851C208.376,70.312,207.781,70.209,207.304,69.767z"/>
		<path fill="#FFFFFF" d="M215.605,69.767c-0.374,0.46-0.901,0.681-1.599,0.681s-1.225-0.221-1.599-0.681
			c-0.527-0.629-0.646-1.735-0.646-3.775c0-2.041,0.119-3.147,0.646-3.775c0.374-0.461,0.901-0.698,1.599-0.698
			s1.225,0.237,1.599,0.698c0.527,0.628,0.646,1.734,0.646,3.775C216.252,68.031,216.133,69.138,215.605,69.767z M214.857,62.759
			c-0.188-0.221-0.477-0.391-0.851-0.391s-0.681,0.17-0.868,0.391c-0.391,0.477-0.424,1.379-0.424,3.232s0.033,2.738,0.424,3.215
			c0.188,0.221,0.494,0.391,0.868,0.391s0.663-0.17,0.851-0.391c0.391-0.477,0.442-1.361,0.442-3.215S215.248,63.235,214.857,62.759
			z"/>
		<path fill="#FFFFFF" d="M227.923,70.312v-0.698c-0.085,0.188-0.34,0.426-0.477,0.527c-0.289,0.205-0.596,0.307-0.986,0.307
			c-0.527,0-0.986-0.204-1.344-0.612c-0.527-0.612-0.646-1.685-0.646-3.844c0-2.16,0.119-3.249,0.646-3.861
			c0.323-0.375,0.749-0.612,1.344-0.612c0.391,0,0.697,0.085,0.986,0.272c0.17,0.103,0.357,0.323,0.46,0.51v-4.099h0.951v12.11
			H227.923z M227.906,63.882c0-0.562-0.137-0.936-0.393-1.19c-0.221-0.204-0.509-0.323-0.833-0.323c-0.34,0-0.646,0.17-0.833,0.391
			c-0.392,0.477-0.425,1.379-0.425,3.232s0.033,2.738,0.425,3.215c0.187,0.221,0.493,0.391,0.833,0.391
			c0.324,0,0.612-0.103,0.833-0.306c0.256-0.256,0.393-0.646,0.393-1.208V63.882z"/>
		<path fill="#FFFFFF" d="M233.334,66.127c0,1.769,0.052,2.637,0.442,3.079c0.188,0.221,0.476,0.391,0.867,0.391
			c0.341,0,0.646-0.103,0.868-0.34c0.255-0.272,0.391-0.697,0.391-1.226h0.936c-0.018,0.834-0.187,1.361-0.629,1.821
			c-0.374,0.391-0.97,0.595-1.565,0.595c-0.68,0-1.19-0.221-1.564-0.63c-0.578-0.611-0.697-1.751-0.697-3.826
			s0.119-3.232,0.697-3.844c0.374-0.409,0.885-0.63,1.548-0.63s1.173,0.221,1.548,0.63c0.612,0.663,0.681,1.888,0.681,3.979H233.334
			z M235.477,62.759c-0.187-0.221-0.459-0.391-0.85-0.391c-0.392,0-0.681,0.17-0.868,0.391c-0.34,0.392-0.408,1.141-0.425,2.604
			h2.568C235.886,63.899,235.817,63.15,235.477,62.759z"/>
		<path fill="#FFFFFF" d="M247.352,70.312h-1.003l-2.024-8.658h1.056l1.479,7.161l1.479-7.161h1.037L247.352,70.312z"/>
		<path fill="#FFFFFF" d="M252.064,59.664v-1.225h1.225v1.225H252.064z M252.2,70.312v-8.658h0.953v8.658H252.2z"/>
		<path fill="#FFFFFF" d="M260.146,70.312v-0.698c-0.085,0.188-0.34,0.426-0.477,0.527c-0.289,0.205-0.595,0.307-0.986,0.307
			c-0.527,0-0.986-0.204-1.344-0.612c-0.527-0.612-0.646-1.685-0.646-3.844c0-2.16,0.119-3.249,0.646-3.861
			c0.323-0.375,0.749-0.612,1.344-0.612c0.392,0,0.697,0.085,0.986,0.272c0.17,0.103,0.357,0.323,0.46,0.51v-4.099h0.951v12.11
			H260.146z M260.129,63.882c0-0.562-0.137-0.936-0.391-1.19c-0.222-0.204-0.511-0.323-0.835-0.323c-0.34,0-0.646,0.17-0.833,0.391
			c-0.392,0.477-0.425,1.379-0.425,3.232s0.033,2.738,0.425,3.215c0.187,0.221,0.493,0.391,0.833,0.391
			c0.324,0,0.613-0.103,0.835-0.306c0.254-0.256,0.391-0.646,0.391-1.208V63.882z"/>
		<path fill="#FFFFFF" d="M267.92,70.312v-0.782c-0.119,0.237-0.322,0.459-0.477,0.578c-0.271,0.204-0.561,0.34-1.037,0.34
			c-0.544,0-1.004-0.188-1.377-0.578c-0.323-0.34-0.562-1.021-0.562-1.956c0-0.816,0.238-1.514,0.73-1.956
			c0.426-0.392,0.919-0.578,1.701-0.578h0.986v-1.548c0-0.953-0.391-1.479-1.189-1.479c-0.342,0-0.597,0.136-0.783,0.323
			c-0.272,0.288-0.392,0.629-0.392,1.207h-0.952c0-0.646,0.137-1.293,0.629-1.786c0.357-0.357,0.868-0.578,1.498-0.578
			c0.68,0,1.206,0.188,1.547,0.544c0.392,0.409,0.596,0.953,0.596,1.803v6.447H267.92z M267.886,66.127h-0.952
			c-0.442,0-0.766,0.102-1.055,0.375c-0.289,0.288-0.459,0.815-0.459,1.394c0,1.037,0.375,1.701,1.208,1.701
			c0.766,0,1.258-0.664,1.258-1.565V66.127z"/>
	</g>
	<g>
		<path fill="#FFFFFF" d="M112.795,51.039c-1.056,0-1.949-0.891-1.949-1.946V28.908l-8.521,12.516
			c-0.452,0.651-0.963,0.954-1.609,0.954c-0.655,0-1.21-0.319-1.647-0.951l-8.482-12.478v20.184c0,1.069-0.84,1.906-1.909,1.906
			c-1.047,0-1.868-0.837-1.868-1.906v-25.62c0-1.036,0.874-1.909,1.908-1.909h0.367c0.725,0,1.337,0.346,1.771,1l9.9,14.885
			l9.898-14.885c0.389-0.633,1.037-1,1.773-1h0.367c1.033,0,1.906,0.873,1.906,1.909v25.58
			C114.701,50.148,113.828,51.039,112.795,51.039z"/>
		<path fill="#FFFFFF" d="M128.248,51.323c-6.165,0-10.814-4.84-10.814-11.261c0-6.396,4.572-11.342,10.408-11.342
			c6.619,0,10.082,5.521,10.082,10.977c0,0.986-0.801,1.786-1.785,1.786h-14.849c0.526,3.886,3.318,6.474,7.041,6.474
			c2.212,0,4.122-0.771,5.842-2.355c0.24-0.199,0.601-0.452,1.113-0.452c0.94,0,1.705,0.746,1.705,1.665
			c0,0.474-0.212,0.921-0.599,1.258C134.048,50.317,131.534,51.323,128.248,51.323z M134.113,38.522
			c-0.377-3.213-2.223-6.516-6.354-6.516c-3.333,0-5.953,2.661-6.471,6.516H134.113z"/>
		<path fill="#FFFFFF" d="M157.123,51.039c-1.069,0-1.909-0.837-1.909-1.906V38.234c0-3.773-2.054-6.023-5.493-6.023
			c-3.521,0-5.98,2.578-5.98,6.267v10.655c0,1.088-0.803,1.906-1.868,1.906c-1.07,0-1.908-0.837-1.908-1.906v-18.26
			c0-1.052,0.838-1.908,1.867-1.908c1.069,0,1.909,0.838,1.909,1.908V32.1c1.683-2.244,3.991-3.379,6.876-3.379
			c5.085,0,8.375,3.432,8.375,8.739v11.673C158.991,50.202,158.17,51.039,157.123,51.039z"/>
		<path fill="#FFFFFF" d="M169.527,51.202c-4.037,0-6.26-2.223-6.26-6.259V32.576h-1.387c-0.908,0-1.704-0.796-1.704-1.703
			c0-0.924,0.778-1.705,1.704-1.705h1.387v-4.64c0-1.07,0.819-1.906,1.868-1.906c1.034,0,1.907,0.872,1.907,1.906v4.64h5.127
			c0.945,0,1.744,0.781,1.744,1.705c0,0.939-0.781,1.703-1.744,1.703h-5.127v11.96c0,2.166,1.021,3.176,3.216,3.176
			c0.703,0,1.177-0.123,1.487-0.204c0.178-0.046,0.304-0.079,0.424-0.079c0.917,0,1.663,0.745,1.663,1.664
			c0,0.677-0.422,1.259-1.101,1.519C171.748,51.014,170.729,51.202,169.527,51.202z"/>
		<path fill="#FFFFFF" d="M184.654,51.323c-6.164,0-10.813-4.84-10.813-11.261c0-6.396,4.571-11.342,10.407-11.342
			c6.619,0,10.083,5.521,10.083,10.977c0,0.986-0.802,1.786-1.785,1.786h-14.851c0.527,3.886,3.318,6.474,7.041,6.474
			c2.211,0,4.122-0.771,5.841-2.355c0.239-0.199,0.603-0.452,1.114-0.452c0.939,0,1.703,0.746,1.703,1.665
			c0,0.474-0.212,0.921-0.598,1.258C190.456,50.317,187.942,51.323,184.654,51.323z M190.521,38.522
			c-0.378-3.213-2.223-6.516-6.354-6.516c-3.333,0-5.953,2.661-6.472,6.516H190.521z"/>
		<path fill="#FFFFFF" d="M207.836,51.162c-1.001,0-1.771-0.549-2.169-1.544l-10.976-25.327c-0.134-0.264-0.191-0.519-0.191-0.86
			c0-1.018,0.91-1.908,1.949-1.908c0.864,0,1.601,0.532,1.965,1.421l9.545,22.874l9.584-22.958c0.326-0.656,0.986-1.337,1.883-1.337
			c1.035,0,1.907,0.856,1.907,1.868c0,0.276-0.045,0.522-0.145,0.768l-11.022,25.468c-0.459,1.021-1.188,1.536-2.166,1.536H207.836z
			"/>
		<path fill="#FFFFFF" d="M224.754,51.039c-1.07,0-1.906-0.837-1.906-1.906v-18.26c0-1.052,0.835-1.908,1.865-1.908
			c1.07,0,1.907,0.838,1.907,1.908v18.26C226.62,50.221,225.818,51.039,224.754,51.039z M224.713,25.418
			c-1.225,0-2.15-0.854-2.15-1.987v-0.528c0-1.152,0.904-1.989,2.15-1.989c1.272,0,2.193,0.837,2.193,1.989v0.528
			C226.906,24.563,225.964,25.418,224.713,25.418z"/>
		<path fill="#FFFFFF" d="M237.768,51.202c-4.036,0-6.259-2.223-6.259-6.259V32.576h-1.387c-0.908,0-1.705-0.796-1.705-1.703
			c0-0.924,0.78-1.705,1.705-1.705h1.387v-4.64c0-1.07,0.819-1.906,1.867-1.906c1.034,0,1.906,0.872,1.906,1.906v4.64h5.127
			c0.948,0,1.746,0.781,1.746,1.705c0,0.939-0.782,1.703-1.746,1.703h-5.127v11.96c0,2.166,1.022,3.176,3.218,3.176
			c0.704,0,1.176-0.123,1.487-0.204c0.177-0.046,0.304-0.079,0.422-0.079c0.919,0,1.665,0.745,1.665,1.664
			c0,0.677-0.423,1.259-1.103,1.519C239.991,51.014,238.969,51.202,237.768,51.202z"/>
		<path fill="#FFFFFF" d="M251.113,51.283c-4.061,0-8.169-2.36-8.169-6.868c0-4.469,3.566-7.194,9.308-7.194
			c2.703,0,4.624,0.385,6.146,0.794v-0.312c0-3.538-2.055-5.411-5.941-5.411c-1.848,0-3.588,0.377-5.318,1.152
			c-0.246,0.099-0.49,0.149-0.7,0.149c-0.924,0-1.705-0.761-1.705-1.664c0-0.809,0.548-1.396,1.056-1.599
			c2.315-1.001,4.475-1.448,6.993-1.448c3.058,0,5.419,0.812,7.018,2.414c1.495,1.49,2.251,3.633,2.251,6.367v11.51
			c0,1.064-0.785,1.865-1.825,1.865c-1.042,0-1.827-0.767-1.827-1.784v-1.029C256.996,49.748,254.697,51.283,251.113,51.283z
			 M252.578,40.182c-3.644,0-5.819,1.507-5.819,4.03c0,2.737,2.574,3.946,4.964,3.946c3.828,0,6.715-2.309,6.715-5.371v-1.79
			C256.469,40.448,254.549,40.182,252.578,40.182z"/>
		<path fill="#FFFFFF" d="M267.422,51.039c-1.068,0-1.906-0.837-1.906-1.906V22.21c0-1.051,0.837-1.907,1.867-1.907
			c1.051,0,1.906,0.856,1.906,1.907v26.923C269.289,50.221,268.486,51.039,267.422,51.039z"/>
	</g>
	<g>
		<g>
			<g>
				<g>
					<path fill="#FFFFFF" d="M74.572,46.566c2.135-2.835,2.697-6.956,1.214-9.755c0.253-0.656,0.292-1.35,0.295-1.903
						c0.004-1.554-0.409-2.675-1.227-3.33c-0.255-0.206-0.539-0.353-0.833-0.45c0.535-3.365-0.529-6.209-2.956-7.85
						c-0.592-0.401-1.242-0.708-1.913-0.919c0.806-2.553-0.109-4.64-1.056-5.972c-1.749-2.453-4.827-2.587-5.987-2.638
						c-0.092-0.004-0.194-0.008-0.252-0.013c-0.083-0.078-0.237-0.325-0.361-0.528c-0.713-1.151-2.038-3.293-6.082-3.744
						c-1.539-0.172-3.158-0.274-4.544,0.47c-4.551,2.439-5.085,8.445-3.004,12.977c-0.497,0.773-0.825,1.652-0.956,2.568
						c-0.162,1.146-0.002,2.284,0.152,3.385c0.083,0.597,0.168,1.215,0.197,1.812c0.018,0.361,0.018,0.74,0.018,1.104
						c-0.001,1.056-0.005,2.143,0.415,3.169c0.288,0.701-0.879,6.965-1.013,8.262c1.896-3.648,5.113-5.963,9.391-7.326
						c0.833-0.266,1.25-0.496,2.579-0.762c3.765-0.754,9.152-1.143,7.804,1.451c-0.086,0.162-0.281,0.427-0.398,0.568
						c-6.761,8.33-8.553,10.156-12.869,15.292c-3.386,4.028-4.896,5.237-5.263,9.209c0.084,0.233,0.18,0.464,0.306,0.686
						c-0.018,0.082-0.015,0.171,0.012,0.255c-0.157,0.238-0.286,0.491-0.405,0.749c-0.003,0.199-0.009,0.39-0.009,0.602
						c0,0.866,0.24,4.356,0.329,8.198c0.269,0.448,0.571,0.835,0.827,1.129c0.893,1.02,1.786,1.693,2.726,2.06
						c0.684,0.267,1.388,0.375,2.098,0.375c1.439,0,2.89-0.443,4.206-0.896c1.322-0.455,2.714-0.966,3.941-1.767
						c0.992-0.646,1.86-1.475,2.555-2.429c1.309-0.28,2.49-1.048,3.274-2.132c0.695-0.961,1.056-2.143,1.031-3.324
						c0.669,0.061,1.402-0.162,1.987-0.637c0.737-0.599,1.161-1.461,1.444-2.144c0.96-2.284,1.311-4.794,1.025-7.255
						c0.239-0.391,0.457-0.833,0.65-1.33c0.87-2.238,1.118-4.669,0.723-7.036C74.632,46.682,74.607,46.621,74.572,46.566z"/>
				</g>
				<g>
					<path fill="#FFFFFF" d="M53.909,47.378c1.826-2.171,5.863-6.622,9.173-10.633c-10.229,1.062-16.845,8.04-15.228,17.627
						C50.24,51.534,51.526,50.216,53.909,47.378z"/>
				</g>
			</g>
		</g>
		<g>
			<path fill="#FFFFFF" d="M43.424,55.856c-0.062-0.294-0.141-0.585-0.255-0.869c0.042-0.06,0.083-0.123,0.122-0.186
				c-1.076-7.167-5.162-11.93-14.008-12.708c4.717,5.615,9.435,11.227,14.152,16.84c0.061-0.433,0.106-0.859,0.123-1.283
				C43.53,57.039,43.487,56.439,43.424,55.856z"/>
			<path fill="#FFFFFF" d="M43.187,68.849c0.023-0.062,0.047-0.13,0.069-0.194c0.234-0.74,0.257-1.504,0.26-2.221
				c0.001-0.336-0.012-0.714-0.045-1.099c-0.125-0.837-0.349-1.585-0.653-2.274c-0.085-0.162-0.175-0.322-0.274-0.476
				c0.008-0.02,0.008-0.042,0.012-0.063c-1.124-2.16-3.035-3.837-5.071-6.261c-4.132-4.914-8.263-9.83-12.395-14.745
				c-2.689-3.201,5.444-2.158,6.538-1.978c4.834,0.802,9.628,3.002,12.393,7.21c0.374-2.476-1.216-11.096-0.93-11.799
				c0.42-1.024,0.418-2.112,0.417-3.166c0-0.367-0.001-0.745,0.016-1.108c0.029-0.596,0.116-1.215,0.198-1.812
				c0.154-1.099,0.312-2.236,0.153-3.383c-0.129-0.916-0.46-1.795-0.958-2.568c2.083-4.531,1.547-10.537-3.002-12.977
				c-1.39-0.744-3.008-0.642-4.546-0.471c-4.043,0.451-5.37,2.595-6.083,3.746c-0.123,0.202-0.276,0.449-0.36,0.528
				c-0.058,0.004-0.161,0.008-0.253,0.012c-1.16,0.05-4.239,0.183-5.986,2.638c-0.947,1.332-1.863,3.42-1.055,5.972
				c-0.672,0.211-1.32,0.518-1.914,0.92c-2.424,1.64-3.489,4.484-2.956,7.849c-0.294,0.097-0.578,0.244-0.832,0.448
				c-0.82,0.657-1.232,1.778-1.228,3.332c0.001,0.554,0.041,1.247,0.296,1.903c-1.481,2.798-0.922,6.919,1.214,9.757
				c-0.036,0.053-0.061,0.112-0.071,0.18c-0.397,2.366-0.147,4.8,0.723,7.037c0.192,0.497,0.41,0.939,0.649,1.329
				c-0.287,2.461,0.066,4.972,1.022,7.256c0.286,0.683,0.711,1.544,1.447,2.143c0.586,0.476,1.318,0.699,1.988,0.638
				c-0.026,1.181,0.333,2.363,1.032,3.324c0.784,1.084,1.967,1.852,3.273,2.132c0.696,0.954,1.563,1.781,2.554,2.429
				c1.227,0.802,2.62,1.311,3.942,1.769c1.314,0.45,2.768,0.893,4.204,0.893c0.709,0,1.415-0.106,2.1-0.374
				c0.939-0.366,1.832-1.043,2.724-2.062C42.583,72.37,43.792,70.62,43.187,68.849z"/>
		</g>
	</g>
</g>
</svg>
