<?xml version="1.0" encoding="utf-8"?>
<!-- Generator: Adobe Illustrator 16.0.0, SVG Export Plug-In . SVG Version: 6.00 Build 0)  -->
<!DOCTYPE svg PUBLIC "-//W3C//DTD SVG 1.1//EN" "http://www.w3.org/Graphics/SVG/1.1/DTD/svg11.dtd">
<svg version="1.1" id="Capa_1" xmlns="http://www.w3.org/2000/svg" xmlns:xlink="http://www.w3.org/1999/xlink" x="0px" y="0px"
	 width="283.46px" height="212.599px" viewBox="0 0 283.46 212.599" enable-background="new 0 0 283.46 212.599"
	 xml:space="preserve">
<g>
	<g>
		<path fill="#FFFFFF" d="M17.496,196.136h-1.924v7.481h-1.401v-16.911h3.325c2.02,0,3.658,0.736,3.658,4.702
			C21.154,194.971,19.896,196.136,17.496,196.136z M17.544,187.964h-1.972v6.912h1.972c1.687,0,2.209-1.234,2.209-3.444
			C19.753,189.224,19.23,187.964,17.544,187.964z"/>
		<path fill="#FFFFFF" d="M30.895,202.88c-0.594,0.595-1.378,0.927-2.304,0.927c-0.927,0-1.663-0.309-2.209-0.855
			c-0.689-0.711-0.95-1.591-0.95-2.612h1.33c0,0.761,0.166,1.331,0.617,1.782c0.333,0.333,0.76,0.499,1.212,0.499
			c0.569,0,1.021-0.189,1.377-0.546s0.547-0.88,0.547-1.498c0-0.499-0.096-0.925-0.333-1.305c-0.261-0.404-0.641-0.737-1.211-1.046
			l-1.521-0.832c-0.76-0.428-1.307-0.973-1.567-1.424c-0.237-0.452-0.333-0.928-0.333-1.521c0-0.925,0.38-1.709,0.95-2.28
			c0.547-0.546,1.307-0.831,2.162-0.831c0.902,0,1.615,0.261,2.161,0.808c0.594,0.595,0.879,1.45,0.879,2.612h-1.33
			c0-0.903-0.143-1.353-0.522-1.757c-0.333-0.356-0.761-0.475-1.188-0.475c-0.523,0-0.95,0.143-1.26,0.451
			c-0.38,0.356-0.522,0.925-0.522,1.424c0,0.404,0.071,0.761,0.238,1.046c0.166,0.31,0.569,0.595,1.116,0.903l1.496,0.854
			c0.784,0.452,1.307,0.88,1.639,1.427c0.333,0.546,0.476,1.21,0.476,1.899C31.845,201.479,31.465,202.312,30.895,202.88z"/>
		<path fill="#FFFFFF" d="M36.287,188.748v-1.71h1.71v1.71H36.287z M36.478,203.617v-12.091h1.33v12.091H36.478z"/>
		<path fill="#FFFFFF" d="M47.547,208.439v-5.724c-0.143,0.259-0.403,0.568-0.642,0.711c-0.403,0.262-0.831,0.38-1.377,0.38
			c-0.832,0-1.426-0.332-1.877-0.855c-0.736-0.854-0.902-2.351-0.902-5.367s0.166-4.536,0.902-5.392
			c0.499-0.57,1.141-0.855,1.877-0.855c0.546,0,0.974,0.143,1.377,0.428c0.19,0.143,0.546,0.475,0.665,0.736v-0.975h1.307v16.913
			H47.547z M47.547,194.639c0-0.785-0.189-1.306-0.546-1.662c-0.31-0.285-0.713-0.451-1.164-0.451c-0.476,0-0.902,0.237-1.164,0.546
			c-0.546,0.664-0.594,1.924-0.594,4.513s0.048,3.824,0.594,4.49c0.262,0.309,0.688,0.546,1.164,0.546
			c0.451,0,0.854-0.143,1.164-0.428c0.356-0.356,0.546-0.903,0.546-1.688V194.639z"/>
		<path fill="#FFFFFF" d="M58.807,203.617v-0.973c-0.143,0.259-0.475,0.592-0.688,0.734c-0.38,0.262-0.831,0.428-1.378,0.428
			c-0.808,0-1.401-0.285-1.9-0.808c-0.475-0.497-0.736-1.187-0.736-2.398v-9.074h1.33v9.098c0,1.331,0.736,1.973,1.663,1.973
			s1.687-0.642,1.687-1.973v-9.098h1.33v12.091H58.807z"/>
		<path fill="#FFFFFF" d="M65.244,188.748v-1.71h1.711v1.71H65.244z M65.435,203.617v-12.091h1.33v12.091H65.435z"/>
		<path fill="#FFFFFF" d="M76.338,203.617v-1.092c-0.166,0.331-0.451,0.64-0.665,0.807c-0.38,0.285-0.784,0.475-1.449,0.475
			c-0.76,0-1.401-0.261-1.923-0.808c-0.452-0.474-0.784-1.425-0.784-2.731c0-1.139,0.332-2.113,1.021-2.731
			c0.594-0.547,1.282-0.807,2.375-0.807h1.378v-2.162c0-1.329-0.547-2.066-1.663-2.066c-0.476,0-0.831,0.19-1.093,0.452
			c-0.38,0.403-0.546,0.877-0.546,1.686h-1.33c0-0.903,0.189-1.805,0.879-2.494c0.499-0.499,1.211-0.808,2.09-0.808
			c0.95,0,1.687,0.261,2.161,0.76c0.547,0.571,0.832,1.331,0.832,2.518v9.003H76.338z M76.291,197.773H74.96
			c-0.617,0-1.068,0.143-1.473,0.523c-0.403,0.404-0.641,1.141-0.641,1.947c0,1.449,0.522,2.376,1.687,2.376
			c1.068,0,1.758-0.927,1.758-2.187V197.773z"/>
		<path fill="#FFFFFF" d="M84.13,202.856c-0.594-0.545-0.902-1.354-0.902-2.47v-7.719h-1.473v-1.046h1.473v-3.635h1.33v3.635h2.066
			v1.046h-2.066v7.719c0,1.449,0.76,2.044,2.161,2.044v1.187C85.745,203.617,84.843,203.521,84.13,202.856z"/>
		<path fill="#FFFFFF" d="M94.725,192.597c-1.425,0-2.352,0.902-2.352,2.351v8.67h-1.33v-12.091h1.307v1.284
			c0.118-0.262,0.403-0.595,0.594-0.761c0.546-0.499,1.259-0.713,2.066-0.713v1.26H94.725z"/>
		<path fill="#FFFFFF" d="M100.426,189.698h-1.163l1.567-3.088h1.378L100.426,189.698z M99.263,203.617v-12.091h1.33v12.091H99.263z
			"/>
		<path fill="#FFFFFF" d="M110.143,203.617v-1.092c-0.167,0.331-0.452,0.64-0.666,0.807c-0.38,0.285-0.783,0.475-1.448,0.475
			c-0.761,0-1.401-0.261-1.924-0.808c-0.452-0.474-0.784-1.425-0.784-2.731c0-1.139,0.332-2.113,1.021-2.731
			c0.594-0.547,1.282-0.807,2.375-0.807h1.378v-2.162c0-1.329-0.547-2.066-1.663-2.066c-0.475,0-0.831,0.19-1.093,0.452
			c-0.38,0.403-0.546,0.877-0.546,1.686h-1.33c0-0.903,0.189-1.805,0.879-2.494c0.499-0.499,1.211-0.808,2.09-0.808
			c0.95,0,1.687,0.261,2.162,0.76c0.546,0.571,0.831,1.331,0.831,2.518v9.003H110.143z M110.095,197.773h-1.33
			c-0.618,0-1.069,0.143-1.473,0.523c-0.404,0.404-0.642,1.141-0.642,1.947c0,1.449,0.522,2.376,1.687,2.376
			c1.068,0,1.758-0.927,1.758-2.187V197.773z"/>
		<path fill="#FFFFFF" d="M132.067,203.617l-1.307-1.995c-1.045,1.306-2.066,2.185-3.942,2.185c-2.09,0-3.753-1.495-3.753-4.084
			c0-2.067,0.927-3.468,2.945-5.322c-1.615-2.279-2.138-3.088-2.138-4.44c0-1.807,1.068-3.396,3.159-3.396
			c2.09,0,3.183,1.329,3.183,3.183c0,1.994-0.761,3.088-2.589,4.821l3.135,4.728c0.594-0.975,1.021-2.637,1.116-3.991h1.283
			c-0.143,1.924-0.736,3.825-1.639,5.178l2.066,3.136H132.067z M126.699,195.446c-1.567,1.543-2.304,2.731-2.304,4.157
			c0,1.591,0.926,2.97,2.565,2.97c1.234,0,2.161-0.855,3.088-2.044L126.699,195.446z M127.056,187.773
			c-1.33,0-1.877,1.141-1.877,2.139c0,0.949,0.357,1.639,1.758,3.611c1.235-1.212,1.995-2.092,1.995-3.729
			C128.932,188.605,128.148,187.773,127.056,187.773z"/>
		<path fill="#FFFFFF" d="M144.706,203.617v-16.911h5.891v1.258h-4.489v6.556h3.872v1.26h-3.872v6.58h4.489v1.258H144.706z"/>
		<path fill="#FFFFFF" d="M160.337,202.88c-0.594,0.595-1.378,0.927-2.305,0.927c-0.926,0-1.662-0.309-2.208-0.855
			c-0.689-0.711-0.951-1.591-0.951-2.612h1.331c0,0.761,0.166,1.331,0.617,1.782c0.333,0.333,0.761,0.499,1.211,0.499
			c0.57,0,1.022-0.189,1.378-0.546c0.356-0.356,0.547-0.88,0.547-1.498c0-0.499-0.096-0.925-0.333-1.305
			c-0.261-0.404-0.641-0.737-1.211-1.046l-1.521-0.832c-0.76-0.428-1.307-0.973-1.567-1.424c-0.238-0.452-0.333-0.928-0.333-1.521
			c0-0.925,0.38-1.709,0.95-2.28c0.546-0.546,1.307-0.831,2.161-0.831c0.903,0,1.615,0.261,2.162,0.808
			c0.595,0.595,0.879,1.45,0.879,2.612h-1.33c0-0.903-0.143-1.353-0.522-1.757c-0.333-0.356-0.761-0.475-1.188-0.475
			c-0.521,0-0.949,0.143-1.259,0.451c-0.38,0.356-0.521,0.925-0.521,1.424c0,0.404,0.07,0.761,0.236,1.046
			c0.167,0.31,0.57,0.595,1.117,0.903l1.497,0.854c0.783,0.452,1.306,0.88,1.639,1.427c0.332,0.546,0.475,1.21,0.475,1.899
			C161.287,201.479,160.907,202.312,160.337,202.88z"/>
		<path fill="#FFFFFF" d="M167.202,202.856c-0.594-0.545-0.902-1.354-0.902-2.47v-7.719h-1.473v-1.046h1.473v-3.635h1.33v3.635
			h2.066v1.046h-2.066v7.719c0,1.449,0.76,2.044,2.161,2.044v1.187C168.817,203.617,167.915,203.521,167.202,202.856z"/>
		<path fill="#FFFFFF" d="M173.926,188.748v-1.71h1.71v1.71H173.926z M174.115,203.617v-12.091h1.33v12.091H174.115z"/>
		<path fill="#FFFFFF" d="M181.575,202.856c-0.57-0.521-0.903-1.258-0.903-2.47v-13.681h1.33v13.681
			c0,1.307,0.642,2.044,1.972,2.044v1.187C183.071,203.617,182.239,203.475,181.575,202.856z"/>
		<path fill="#FFFFFF" d="M193.167,202.856c-0.523,0.642-1.259,0.95-2.233,0.95c-0.974,0-1.71-0.309-2.232-0.95
			c-0.736-0.878-0.903-2.423-0.903-5.272c0-2.851,0.167-4.394,0.903-5.272c0.522-0.643,1.259-0.975,2.232-0.975
			c0.975,0,1.71,0.332,2.233,0.975c0.735,0.879,0.902,2.422,0.902,5.272C194.069,200.434,193.902,201.979,193.167,202.856z
			 M192.121,193.071c-0.261-0.309-0.665-0.546-1.188-0.546c-0.521,0-0.949,0.237-1.211,0.546c-0.547,0.664-0.595,1.924-0.595,4.513
			s0.048,3.824,0.595,4.49c0.262,0.309,0.689,0.546,1.211,0.546c0.522,0,0.927-0.237,1.188-0.546
			c0.547-0.666,0.618-1.901,0.618-4.49S192.668,193.735,192.121,193.071z"/>
		<path fill="#FFFFFF" d="M210.365,203.617v-0.973c-0.119,0.259-0.476,0.592-0.665,0.734c-0.403,0.285-0.831,0.428-1.378,0.428
			c-0.736,0-1.378-0.285-1.876-0.855c-0.736-0.854-0.903-2.351-0.903-5.367s0.167-4.536,0.903-5.392
			c0.451-0.523,1.045-0.855,1.876-0.855c0.547,0,0.975,0.118,1.378,0.38c0.237,0.143,0.499,0.451,0.642,0.713v-5.724h1.33v16.911
			H210.365z M210.342,194.639c0-0.785-0.19-1.306-0.547-1.662c-0.309-0.285-0.712-0.451-1.164-0.451
			c-0.475,0-0.902,0.237-1.163,0.546c-0.547,0.664-0.595,1.924-0.595,4.513s0.048,3.824,0.595,4.49
			c0.261,0.309,0.688,0.546,1.163,0.546c0.452,0,0.855-0.143,1.164-0.428c0.356-0.356,0.547-0.903,0.547-1.688V194.639z"/>
		<path fill="#FFFFFF" d="M217.92,197.773c0,2.471,0.071,3.683,0.617,4.301c0.262,0.309,0.666,0.546,1.212,0.546
			c0.475,0,0.902-0.143,1.211-0.475c0.356-0.381,0.547-0.975,0.547-1.712h1.306c-0.023,1.165-0.261,1.901-0.878,2.541
			c-0.523,0.547-1.354,0.832-2.186,0.832c-0.95,0-1.663-0.309-2.186-0.879c-0.808-0.854-0.974-2.446-0.974-5.344
			c0-2.898,0.166-4.513,0.974-5.368c0.522-0.57,1.235-0.879,2.161-0.879c0.927,0,1.64,0.309,2.162,0.879
			c0.854,0.927,0.95,2.637,0.95,5.558H217.92z M220.912,193.071c-0.261-0.309-0.641-0.546-1.188-0.546
			c-0.546,0-0.949,0.237-1.211,0.546c-0.476,0.547-0.57,1.591-0.594,3.635h3.587C221.482,194.662,221.388,193.618,220.912,193.071z"
			/>
		<path fill="#FFFFFF" d="M237.493,203.617h-1.401l-2.826-12.091h1.473l2.067,10.001l2.065-10.001h1.449L237.493,203.617z"/>
		<path fill="#FFFFFF" d="M244.074,188.748v-1.71h1.711v1.71H244.074z M244.265,203.617v-12.091h1.33v12.091H244.265z"/>
		<path fill="#FFFFFF" d="M255.357,203.617v-0.973c-0.119,0.259-0.476,0.592-0.665,0.734c-0.403,0.285-0.831,0.428-1.378,0.428
			c-0.736,0-1.378-0.285-1.876-0.855c-0.736-0.854-0.903-2.351-0.903-5.367s0.167-4.536,0.903-5.392
			c0.451-0.523,1.045-0.855,1.876-0.855c0.547,0,0.975,0.118,1.378,0.38c0.237,0.143,0.499,0.451,0.642,0.713v-5.724h1.33v16.911
			H255.357z M255.334,194.639c0-0.785-0.19-1.306-0.546-1.662c-0.31-0.285-0.713-0.451-1.165-0.451
			c-0.474,0-0.902,0.237-1.163,0.546c-0.547,0.664-0.595,1.924-0.595,4.513s0.048,3.824,0.595,4.49
			c0.261,0.309,0.689,0.546,1.163,0.546c0.452,0,0.855-0.143,1.165-0.428c0.355-0.356,0.546-0.903,0.546-1.688V194.639z"/>
		<path fill="#FFFFFF" d="M266.214,203.617v-1.092c-0.167,0.331-0.451,0.64-0.665,0.807c-0.38,0.285-0.784,0.475-1.448,0.475
			c-0.761,0-1.401-0.261-1.925-0.808c-0.451-0.474-0.784-1.425-0.784-2.731c0-1.139,0.333-2.113,1.021-2.731
			c0.594-0.547,1.283-0.807,2.375-0.807h1.378v-2.162c0-1.329-0.546-2.066-1.663-2.066c-0.475,0-0.831,0.19-1.092,0.452
			c-0.381,0.403-0.547,0.877-0.547,1.686h-1.33c0-0.903,0.19-1.805,0.879-2.494c0.499-0.499,1.212-0.808,2.09-0.808
			c0.951,0,1.687,0.261,2.162,0.76c0.547,0.571,0.831,1.331,0.831,2.518v9.003H266.214z M266.166,197.773h-1.33
			c-0.617,0-1.068,0.143-1.473,0.523c-0.404,0.404-0.641,1.141-0.641,1.947c0,1.449,0.521,2.376,1.686,2.376
			c1.069,0,1.758-0.927,1.758-2.187V197.773z"/>
	</g>
	<g>
		<path fill="#FFFFFF" d="M50.775,175.768c-1.475,0-2.721-1.244-2.721-2.718v-28.186l-11.898,17.479
			c-0.631,0.908-1.345,1.329-2.247,1.329c-0.914,0-1.689-0.444-2.3-1.326l-11.845-17.422v28.182c0,1.493-1.172,2.662-2.664,2.662
			c-1.462,0-2.607-1.169-2.607-2.662v-35.774c0-1.444,1.219-2.665,2.664-2.665h0.513c1.012,0,1.867,0.481,2.474,1.395l13.823,20.785
			l13.821-20.785c0.542-0.882,1.447-1.395,2.476-1.395h0.512c1.441,0,2.662,1.221,2.662,2.665v35.719
			C53.438,174.523,52.217,175.768,50.775,175.768z"/>
		<path fill="#FFFFFF" d="M72.353,176.164c-8.608,0-15.101-6.759-15.101-15.724c0-8.931,6.385-15.836,14.533-15.836
			c9.241,0,14.077,7.71,14.077,15.326c0,1.377-1.119,2.494-2.493,2.494H62.636c0.734,5.426,4.632,9.038,9.831,9.038
			c3.087,0,5.755-1.077,8.156-3.288c0.335-0.278,0.839-0.63,1.554-0.63c1.312,0,2.38,1.04,2.38,2.324
			c0,0.661-0.296,1.286-0.835,1.756C80.454,174.76,76.942,176.164,72.353,176.164z M80.542,158.29
			c-0.526-4.486-3.104-9.098-8.871-9.098c-4.654,0-8.312,3.716-9.035,9.098H80.542z"/>
		<path fill="#FFFFFF" d="M112.671,175.768c-1.493,0-2.663-1.169-2.663-2.662v-15.218c0-5.268-2.869-8.411-7.672-8.411
			c-4.919,0-8.352,3.6-8.352,8.751v14.878c0,1.518-1.121,2.662-2.607,2.662c-1.493,0-2.665-1.169-2.665-2.662v-25.496
			c0-1.469,1.172-2.664,2.607-2.664c1.493,0,2.665,1.168,2.665,2.664v1.712c2.35-3.133,5.573-4.717,9.602-4.717
			c7.102,0,11.693,4.79,11.693,12.203v16.298C115.279,174.599,114.135,175.768,112.671,175.768z"/>
		<path fill="#FFFFFF" d="M129.99,175.994c-5.636,0-8.74-3.103-8.74-8.737v-17.27h-1.936c-1.268,0-2.379-1.111-2.379-2.378
			c0-1.291,1.088-2.382,2.379-2.382h1.936v-6.479c0-1.493,1.146-2.662,2.608-2.662c1.444,0,2.663,1.219,2.663,2.662v6.479h7.16
			c1.319,0,2.436,1.091,2.436,2.382c0,1.311-1.091,2.378-2.436,2.378h-7.16v16.699c0,3.025,1.427,4.435,4.492,4.435
			c0.981,0,1.643-0.172,2.076-0.284c0.247-0.065,0.426-0.112,0.592-0.112c1.28,0,2.322,1.041,2.322,2.325
			c0,0.943-0.589,1.757-1.537,2.12C133.094,175.73,131.669,175.994,129.99,175.994z"/>
		<path fill="#FFFFFF" d="M151.115,176.164c-8.609,0-15.101-6.759-15.101-15.724c0-8.931,6.383-15.836,14.531-15.836
			c9.241,0,14.078,7.71,14.078,15.326c0,1.377-1.118,2.494-2.492,2.494h-20.734c0.734,5.426,4.633,9.038,9.831,9.038
			c3.087,0,5.755-1.077,8.156-3.288c0.335-0.278,0.839-0.63,1.555-0.63c1.311,0,2.38,1.04,2.38,2.324
			c0,0.661-0.298,1.286-0.836,1.756C159.215,174.76,155.705,176.164,151.115,176.164z M159.305,158.29
			c-0.526-4.486-3.104-9.098-8.872-9.098c-4.652,0-8.312,3.716-9.035,9.098H159.305z"/>
		<path fill="#FFFFFF" d="M183.483,175.938c-1.398,0-2.473-0.765-3.029-2.153l-15.327-35.367c-0.185-0.366-0.265-0.723-0.265-1.199
			c0-1.422,1.271-2.664,2.722-2.664c1.207,0,2.233,0.74,2.742,1.982l13.327,31.939l13.383-32.057
			c0.455-0.915,1.378-1.865,2.628-1.865c1.446,0,2.665,1.194,2.665,2.607c0,0.387-0.064,0.729-0.201,1.072l-15.394,35.562
			c-0.641,1.424-1.657,2.143-3.024,2.143H183.483z"/>
		<path fill="#FFFFFF" d="M207.104,175.768c-1.493,0-2.661-1.169-2.661-2.662v-25.496c0-1.469,1.166-2.664,2.605-2.664
			c1.493,0,2.663,1.168,2.663,2.664v25.496C209.712,174.623,208.591,175.768,207.104,175.768z M207.049,139.992
			c-1.713,0-3.004-1.192-3.004-2.774v-0.738c0-1.609,1.263-2.779,3.004-2.779c1.775,0,3.062,1.17,3.062,2.779v0.738
			C210.11,138.8,208.794,139.992,207.049,139.992z"/>
		<path fill="#FFFFFF" d="M225.274,175.994c-5.635,0-8.737-3.103-8.737-8.737v-17.27H214.6c-1.268,0-2.379-1.111-2.379-2.378
			c0-1.291,1.089-2.382,2.379-2.382h1.938v-6.479c0-1.493,1.144-2.662,2.606-2.662c1.444,0,2.662,1.219,2.662,2.662v6.479h7.16
			c1.321,0,2.437,1.091,2.437,2.382c0,1.311-1.093,2.378-2.437,2.378h-7.16v16.699c0,3.025,1.428,4.435,4.493,4.435
			c0.982,0,1.641-0.172,2.077-0.284c0.246-0.065,0.425-0.112,0.59-0.112c1.281,0,2.323,1.041,2.323,2.325
			c0,0.943-0.59,1.757-1.537,2.12C228.381,175.73,226.954,175.994,225.274,175.994z"/>
		<path fill="#FFFFFF" d="M243.911,176.108c-5.67,0-11.408-3.294-11.408-9.591c0-6.24,4.98-10.046,12.998-10.046
			c3.774,0,6.457,0.539,8.581,1.109v-0.435c0-4.943-2.869-7.557-8.296-7.557c-2.58,0-5.011,0.526-7.427,1.609
			c-0.344,0.138-0.685,0.209-0.978,0.209c-1.291,0-2.381-1.062-2.381-2.323c0-1.131,0.764-1.949,1.475-2.232
			c3.233-1.396,6.248-2.021,9.764-2.021c4.271,0,7.567,1.132,9.801,3.369c2.086,2.082,3.142,5.074,3.142,8.892v16.071
			c0,1.485-1.097,2.604-2.549,2.604c-1.457,0-2.551-1.071-2.551-2.492v-1.437C252.126,173.965,248.914,176.108,243.911,176.108z
			 M245.956,160.606c-5.087,0-8.126,2.104-8.126,5.628c0,3.821,3.594,5.511,6.933,5.511c5.345,0,9.375-3.225,9.375-7.499v-2.501
			C251.388,160.979,248.708,160.606,245.956,160.606z"/>
		<path fill="#FFFFFF" d="M266.683,175.768c-1.491,0-2.662-1.169-2.662-2.662v-37.593c0-1.469,1.169-2.664,2.605-2.664
			c1.469,0,2.663,1.195,2.663,2.664v37.593C269.289,174.623,268.169,175.768,266.683,175.768z"/>
	</g>
	<g>
		<g>
			<g>
				<g>
					<path fill="#FFFFFF" d="M192.891,69.255c3.733-4.958,4.715-12.164,2.122-17.061c0.443-1.146,0.511-2.357,0.519-3.327
						c0.007-2.717-0.717-4.677-2.146-5.824c-0.447-0.361-0.942-0.615-1.457-0.787c0.937-5.885-0.927-10.857-5.168-13.726
						c-1.036-0.701-2.172-1.236-3.347-1.606c1.41-4.465-0.191-8.115-1.846-10.442c-3.059-4.292-8.44-4.525-10.47-4.615
						c-0.16-0.006-0.339-0.013-0.44-0.021c-0.146-0.136-0.415-0.571-0.632-0.924c-1.246-2.012-3.562-5.758-10.636-6.545
						c-2.69-0.301-5.521-0.482-7.947,0.819c-7.959,4.269-8.894,14.77-5.252,22.693c-0.87,1.352-1.445,2.891-1.672,4.492
						c-0.282,2.004-0.004,3.993,0.267,5.919c0.145,1.043,0.294,2.125,0.345,3.17c0.031,0.63,0.031,1.292,0.031,1.931
						c-0.004,1.844-0.01,3.747,0.725,5.54c0.504,1.227-1.537,12.181-1.771,14.447c3.315-6.38,8.94-10.427,16.423-12.812
						c1.457-0.465,2.186-0.865,4.509-1.331c6.584-1.316,16.004-1.999,13.646,2.537c-0.149,0.285-0.491,0.746-0.694,0.995
						c-11.823,14.567-14.957,17.759-22.506,26.741c-5.92,7.045-8.561,9.158-9.203,16.105c0.146,0.406,0.315,0.81,0.534,1.196
						c-0.03,0.146-0.026,0.3,0.021,0.448c-0.273,0.416-0.5,0.859-0.71,1.311c-0.005,0.347-0.015,0.681-0.015,1.049
						c0,1.516,0.419,7.62,0.575,14.336c0.469,0.786,0.997,1.462,1.444,1.975c1.562,1.784,3.123,2.962,4.767,3.604
						c1.196,0.465,2.428,0.654,3.67,0.654c2.516,0,5.054-0.775,7.354-1.566c2.312-0.795,4.746-1.688,6.892-3.087
						c1.733-1.13,3.253-2.581,4.468-4.249c2.289-0.49,4.354-1.832,5.728-3.728c1.215-1.682,1.845-3.747,1.8-5.813
						c1.172,0.106,2.451-0.283,3.477-1.113c1.289-1.047,2.03-2.554,2.525-3.748c1.678-3.997,2.293-8.383,1.791-12.687
						c0.419-0.683,0.8-1.457,1.139-2.325c1.521-3.915,1.956-8.167,1.266-12.306C192.996,69.456,192.951,69.349,192.891,69.255z"/>
				</g>
				<g>
					<path fill="#FFFFFF" d="M156.758,70.673c3.194-3.797,10.253-11.58,16.042-18.596c-17.889,1.858-29.458,14.062-26.63,30.826
						C150.341,77.942,152.59,75.635,156.758,70.673z"/>
				</g>
			</g>
		</g>
		<g>
			<path fill="#FFFFFF" d="M138.422,85.499c-0.108-0.513-0.247-1.023-0.446-1.52c0.074-0.104,0.145-0.216,0.212-0.324
				c-1.881-12.534-9.025-20.862-24.495-22.224c8.248,9.819,16.497,19.633,24.747,29.449c0.106-0.756,0.185-1.505,0.215-2.245
				C138.607,87.567,138.532,86.52,138.422,85.499z"/>
			<path fill="#FFFFFF" d="M138.008,108.219c0.042-0.109,0.082-0.227,0.12-0.339c0.41-1.293,0.449-2.63,0.454-3.884
				c0.003-0.588-0.021-1.249-0.078-1.92c-0.22-1.465-0.609-2.772-1.142-3.979c-0.149-0.283-0.306-0.563-0.48-0.83
				c0.014-0.036,0.014-0.074,0.021-0.11c-1.967-3.779-5.309-6.71-8.868-10.949c-7.226-8.595-14.45-17.191-21.674-25.786
				c-4.703-5.598,9.52-3.775,11.434-3.458c8.453,1.401,16.836,5.248,21.67,12.606c0.655-4.33-2.125-19.403-1.624-20.632
				c0.734-1.791,0.73-3.694,0.728-5.536c0-0.643-0.001-1.303,0.029-1.938c0.051-1.043,0.201-2.125,0.348-3.17
				c0.27-1.922,0.545-3.91,0.268-5.915c-0.226-1.604-0.805-3.14-1.675-4.492c3.642-7.924,2.706-18.425-5.249-22.692
				c-2.431-1.302-5.26-1.121-7.949-0.821c-7.072,0.788-9.39,4.536-10.637,6.548c-0.216,0.352-0.482,0.785-0.631,0.924
				c-0.1,0.008-0.281,0.014-0.441,0.021c-2.028,0.088-7.413,0.321-10.47,4.614c-1.656,2.328-3.256,5.98-1.844,10.443
				c-1.176,0.369-2.308,0.905-3.348,1.607c-4.238,2.868-6.101,7.841-5.168,13.725c-0.514,0.17-1.011,0.426-1.454,0.785
				c-1.434,1.15-2.154,3.109-2.148,5.826c0.004,0.97,0.072,2.181,0.52,3.327c-2.591,4.895-1.613,12.101,2.122,17.063
				c-0.063,0.092-0.105,0.196-0.125,0.313c-0.694,4.138-0.257,8.396,1.265,12.307c0.337,0.869,0.716,1.643,1.136,2.325
				c-0.502,4.303,0.117,8.692,1.788,12.688c0.499,1.194,1.243,2.699,2.529,3.747c1.026,0.831,2.305,1.223,3.477,1.114
				c-0.044,2.065,0.584,4.131,1.805,5.813c1.371,1.896,3.439,3.237,5.724,3.728c1.218,1.668,2.734,3.117,4.468,4.249
				c2.146,1.4,4.581,2.289,6.894,3.09c2.298,0.788,4.841,1.562,7.352,1.562c1.241,0,2.474-0.188,3.673-0.653
				c1.643-0.642,3.204-1.823,4.764-3.606C136.952,114.378,139.064,111.317,138.008,108.219z"/>
		</g>
	</g>
</g>
</svg>
